<svg id="Icon" xmlns="http://www.w3.org/2000/svg" width="63" height="56" viewBox="0 0 63 56">
  <rect id="bg" width="42" height="56" fill="#fbb731"/>
  <g id="burger" transform="translate(21 7)">
    <path id="Shape" d="M1.5,21A1.5,1.5,0,0,1,0,19.5,19.523,19.523,0,0,1,19.5,0h3A19.523,19.523,0,0,1,42,19.5,1.5,1.5,0,0,1,40.5,21Z" fill="#fff"/>
    <path id="Shape-2" data-name="Shape" d="M7.5,11.892A7.475,7.475,0,0,1,0,4.46V1.487A1.493,1.493,0,0,1,1.5,0h21a1.511,1.511,0,0,1,.9.3l5.1,3.791L33.6.3a1.514,1.514,0,0,1,.9-.3h6A1.493,1.493,0,0,1,42,1.487V4.46a7.477,7.477,0,0,1-7.5,7.432Z" transform="translate(0 30.108)" fill="#fff"/>
    <path id="Path" d="M40.5,0H1.5A1.509,1.509,0,0,0,0,1.518,1.509,1.509,0,0,0,1.5,3.036h39A1.509,1.509,0,0,0,42,1.518,1.509,1.509,0,0,0,40.5,0Z" transform="translate(0 24.036)" fill="#fff"/>
    <path id="Path-2" data-name="Path" d="M1.518,0A1.518,1.518,0,0,0,0,1.518V3.036a1.518,1.518,0,1,0,3.036,0V1.518A1.518,1.518,0,0,0,1.518,0Z" transform="translate(11.892 8.855)" fill="#fff"/>
    <path id="Path-3" data-name="Path" d="M1.518,0A1.518,1.518,0,0,0,0,1.518V3.036a1.518,1.518,0,1,0,3.036,0V1.518A1.518,1.518,0,0,0,1.518,0Z" transform="translate(19.482 8.855)" fill="#fff"/>
    <path id="Path-4" data-name="Path" d="M1.518,0A1.518,1.518,0,0,0,0,1.518V3.036a1.518,1.518,0,1,0,3.036,0V1.518A1.518,1.518,0,0,0,1.518,0Z" transform="translate(27.072 8.855)" fill="#fff"/>
  </g>
</svg>
